<svg width="325" height="125" viewBox="0 0 325 125" fill="none" xmlns="http://www.w3.org/2000/svg">
<mask id="mask0_3420_1963" style="mask-type:alpha" maskUnits="userSpaceOnUse" x="17" y="10" width="292" height="108">
<rect x="17" y="10" width="292" height="108" rx="19.0044" fill="url(#paint0_linear_3420_1963)"/>
</mask>
<g mask="url(#mask0_3420_1963)">
<path d="M33.803 46.5309C33.803 55.606 26.2396 62.9629 16.9097 62.9629C7.57969 62.9629 0.0162659 55.606 0.0162659 46.5309C0.0162659 41.7462 2.11873 37.4391 5.47406 34.4361C8.48273 31.7433 12.4988 30.099 16.9097 30.099C26.2396 30.099 33.803 37.4558 33.803 46.5309Z" fill="#35B021"/>
<path d="M82.5585 46.5309C82.5585 55.606 74.9951 62.9629 65.6652 62.9629C56.3352 62.9629 48.7718 55.606 48.7718 46.5309C48.7718 45.3717 48.8952 44.2405 49.1299 43.1491C50.7329 35.6964 57.527 30.099 65.6652 30.099C74.9951 30.099 82.5585 37.4558 82.5585 46.5309Z" fill="#35B021"/>
<path d="M63.5868 26.8868C63.5868 35.1571 57.3054 42.0004 49.1299 43.1491C48.3343 43.2609 47.5208 43.3187 46.6934 43.3187C38.4936 43.3187 31.6583 37.6362 30.1226 30.099C29.911 29.0601 29.8 27.9861 29.8 26.8868C29.8 25.4431 29.9914 24.0428 30.3509 22.7088C32.2512 15.6571 38.8477 10.4548 46.6934 10.4548C56.0233 10.4548 63.5868 17.8117 63.5868 26.8868Z" fill="#35B021"/>
<path d="M33.803 46.5309C33.803 55.606 26.2396 62.9629 16.9097 62.9629H65.6652C56.3352 62.9629 48.7718 55.606 48.7718 46.5309C48.7718 45.3717 48.8952 44.2405 49.1299 43.1491C48.3343 43.2609 47.5208 43.3187 46.6934 43.3187C38.4936 43.3187 31.6583 37.6362 30.1226 30.099H19.103H16.9097C26.2396 30.099 33.803 37.4558 33.803 46.5309Z" fill="#35B021"/>
<path d="M30.1226 30.099C29.911 29.0601 29.8 27.9861 29.8 26.8868C29.8 25.4431 29.9914 24.0428 30.3509 22.7088C28.9392 25.1722 24.7133 30.099 19.103 30.099H30.1226Z" fill="#35B021"/>
<path d="M115.267 33.5689C115.267 39.5795 110.258 44.452 104.079 44.452C97.8994 44.452 92.89 39.5795 92.89 33.5689C92.89 30.3999 94.2825 27.5473 96.5048 25.5583C98.4975 23.7749 101.157 22.6858 104.079 22.6858C110.258 22.6858 115.267 27.5584 115.267 33.5689Z" fill="#35B021"/>
<path d="M147.559 33.5689C147.559 39.5795 142.549 44.452 136.37 44.452C130.191 44.452 125.181 39.5795 125.181 33.5689C125.181 32.8011 125.263 32.0519 125.419 31.3291C126.48 26.3931 130.98 22.6858 136.37 22.6858C142.549 22.6858 147.559 27.5584 147.559 33.5689Z" fill="#35B021"/>
<path d="M134.994 20.5584C134.994 26.0359 130.833 30.5683 125.419 31.3291C124.892 31.4031 124.353 31.4414 123.805 31.4414C118.374 31.4414 113.847 27.6779 112.83 22.6858C112.69 21.9978 112.616 21.2864 112.616 20.5584C112.616 19.6022 112.743 18.6748 112.981 17.7912C114.24 13.1208 118.609 9.67529 123.805 9.67529C129.984 9.67529 134.994 14.5478 134.994 20.5584Z" fill="#35B021"/>
<path d="M115.267 33.5689C115.267 39.5795 110.258 44.452 104.079 44.452H136.37C130.191 44.452 125.181 39.5795 125.181 33.5689C125.181 32.8011 125.263 32.0519 125.419 31.3291C124.892 31.4031 124.353 31.4414 123.805 31.4414C118.374 31.4414 113.847 27.6779 112.83 22.6858H105.531H104.079C110.258 22.6858 115.267 27.5584 115.267 33.5689Z" fill="#35B021"/>
<path d="M112.83 22.6858C112.69 21.9978 112.616 21.2864 112.616 20.5584C112.616 19.6022 112.743 18.6748 112.981 17.7912C112.046 19.4228 109.247 22.6858 105.531 22.6858H112.83Z" fill="#35B021"/>
<path d="M292.31 47.8936C292.31 53.9042 287.301 58.7767 281.122 58.7767C274.942 58.7767 269.933 53.9042 269.933 47.8936C269.933 44.7246 271.325 41.872 273.548 39.8831C275.54 38.0996 278.2 37.0105 281.122 37.0105C287.301 37.0105 292.31 41.8831 292.31 47.8936Z" fill="#35B021"/>
<path d="M324.602 47.8936C324.602 53.9042 319.592 58.7767 313.413 58.7767C307.234 58.7767 302.224 53.9042 302.224 47.8936C302.224 47.1258 302.306 46.3766 302.461 45.6538C303.523 40.7178 308.023 37.0105 313.413 37.0105C319.592 37.0105 324.602 41.8831 324.602 47.8936Z" fill="#35B021"/>
<path d="M312.036 34.8831C312.036 40.3606 307.876 44.893 302.461 45.6538C301.935 45.7278 301.396 45.7662 300.848 45.7662C295.417 45.7662 290.89 42.0026 289.873 37.0105C289.732 36.3225 289.659 35.6111 289.659 34.8831C289.659 33.9269 289.786 32.9995 290.024 32.1159C291.282 27.4455 295.651 24 300.848 24C307.027 24 312.036 28.8725 312.036 34.8831Z" fill="#35B021"/>
<path d="M292.31 47.8936C292.31 53.9042 287.301 58.7767 281.122 58.7767H313.413C307.234 58.7767 302.224 53.9042 302.224 47.8936C302.224 47.1258 302.306 46.3766 302.461 45.6538C301.935 45.7278 301.396 45.7662 300.848 45.7662C295.417 45.7662 290.89 42.0026 289.873 37.0105H282.574H281.122C287.301 37.0105 292.31 41.8831 292.31 47.8936Z" fill="#35B021"/>
<path d="M289.873 37.0105C289.732 36.3225 289.659 35.6111 289.659 34.8831C289.659 33.9269 289.786 32.9995 290.024 32.1159C289.089 33.7475 286.29 37.0105 282.574 37.0105H289.873Z" fill="#35B021"/>
<ellipse cx="14.8745" cy="14.6699" rx="14.8745" ry="14.6699" transform="matrix(0.871918 -0.489652 0.51042 0.859925 62.2398 78.7009)" fill="#35B021"/>
<path d="M86.1025 90.5927C85.2784 91.0555 84.4781 91.3734 83.7016 91.5462C82.9183 91.7075 82.0747 91.7013 81.171 91.5276C80.9422 91.4858 80.7383 91.4068 80.5594 91.2905C80.3805 91.1742 80.2428 91.0348 80.1463 90.8722C79.9878 90.6052 79.9441 90.32 80.0153 90.0169C80.0914 89.6955 80.2766 89.4521 80.571 89.2868C80.7946 89.1612 81.0361 89.1185 81.2955 89.1586C81.9565 89.2673 82.56 89.2923 83.1058 89.2334C83.6635 89.168 84.2661 88.9534 84.9136 88.5898C85.3493 88.3451 85.7116 88.0565 86.0008 87.7238C86.2831 87.3795 86.4706 87.0342 86.5633 86.688C86.6492 86.3301 86.6059 86.0061 86.4336 85.7158C86.2269 85.3674 85.9452 85.1308 85.5885 85.006C85.2319 84.8812 84.7875 84.8598 84.2554 84.9419C83.7164 85.0123 83.0838 85.1896 82.3576 85.4735C81.6667 85.7377 81.0247 85.9124 80.4317 85.9977C79.8319 86.0714 79.281 86.0556 78.779 85.9505C78.2819 85.8271 77.8338 85.6143 77.4346 85.3121C77.0286 84.9982 76.6774 84.5917 76.381 84.0924C75.933 83.3376 75.7448 82.5841 75.8163 81.8318C75.8995 81.0729 76.194 80.3656 76.6997 79.7101C77.2053 79.0546 77.8643 78.4987 78.6767 78.0425C79.442 77.6127 80.2173 77.3321 81.0027 77.2007C81.7929 77.0511 82.4975 77.0347 83.1163 77.1517C83.6163 77.227 83.9696 77.4388 84.1764 77.7872C84.328 78.0426 84.3658 78.331 84.2897 78.6525C84.2136 78.9739 84.0402 79.2106 83.7694 79.3627C83.5928 79.4618 83.4028 79.4988 83.1995 79.4737C82.9146 79.4169 82.5719 79.4081 82.1713 79.4473C81.7639 79.4749 81.3559 79.5414 80.9476 79.6468C80.5324 79.7407 80.1717 79.8736 79.8656 80.0455C79.3593 80.3298 78.9675 80.6349 78.6901 80.961C78.4245 81.2805 78.2689 81.6001 78.2232 81.9199C78.1776 82.2397 78.2409 82.5447 78.4132 82.835C78.62 83.1834 78.8924 83.4175 79.2303 83.5373C79.5732 83.6389 79.9803 83.6503 80.4515 83.5714C80.9158 83.481 81.4498 83.3359 82.0534 83.1363C82.8356 82.8673 83.5433 82.6711 84.1765 82.5478C84.8215 82.4178 85.4032 82.393 85.9218 82.4733C86.4336 82.542 86.9018 82.7358 87.3265 83.0546C87.7443 83.3619 88.129 83.8116 88.4805 84.4038C88.9285 85.1585 89.1025 85.9277 89.0026 86.7115C88.9027 87.4953 88.5916 88.2273 88.0692 88.9077C87.5587 89.5815 86.9031 90.1431 86.1025 90.5927ZM87.9323 90.8192C88.1115 91.1211 88.1537 91.4302 88.059 91.7466C87.9829 92.068 87.7918 92.3147 87.4857 92.4866C87.1913 92.6519 86.8821 92.6862 86.5579 92.5896C86.2406 92.5046 85.9923 92.3112 85.8131 92.0093L77.5012 78.0059C77.322 77.704 77.2739 77.3982 77.3569 77.0884C77.4448 76.7604 77.6417 76.5104 77.9479 76.3385C78.254 76.1666 78.5632 76.1323 78.8757 76.2355C79.193 76.3205 79.4412 76.5139 79.6204 76.8158L87.9323 90.8192Z" fill="#138900"/>
<ellipse cx="14.8745" cy="14.6699" rx="14.8745" ry="14.6699" transform="matrix(0.871918 -0.489652 0.51042 0.859925 219.557 9.56665)" fill="#35B021"/>
<path d="M243.42 21.4585C242.595 21.9213 241.795 22.2391 241.019 22.412C240.235 22.5732 239.392 22.567 238.488 22.3933C238.259 22.3515 238.055 22.2725 237.876 22.1562C237.697 22.0399 237.56 21.9005 237.463 21.7379C237.305 21.4709 237.261 21.1858 237.332 20.8826C237.408 20.5612 237.594 20.3178 237.888 20.1525C238.112 20.0269 238.353 19.9842 238.612 20.0243C239.274 20.1331 239.877 20.158 240.423 20.0991C240.981 20.0337 241.583 19.8191 242.231 19.4555C242.666 19.2109 243.029 18.9222 243.318 18.5895C243.6 18.2452 243.788 17.8999 243.88 17.5537C243.966 17.1958 243.923 16.8718 243.751 16.5815C243.544 16.2332 243.262 15.9966 242.906 15.8717C242.549 15.7469 242.105 15.7255 241.572 15.8076C241.033 15.8781 240.401 16.0553 239.675 16.3393C238.984 16.6034 238.342 16.7781 237.749 16.8634C237.149 16.9371 236.598 16.9214 236.096 16.8162C235.599 16.6928 235.151 16.48 234.752 16.1778C234.346 15.864 233.994 15.4574 233.698 14.9581C233.25 14.2034 233.062 13.4498 233.133 12.6975C233.217 11.9386 233.511 11.2314 234.017 10.5758C234.522 9.92029 235.181 9.36441 235.994 8.90821C236.759 8.47845 237.534 8.19786 238.32 8.06645C239.11 7.91681 239.814 7.90046 240.433 8.01739C240.933 8.09272 241.287 8.30455 241.493 8.65289C241.645 8.90834 241.683 9.19677 241.607 9.51818C241.531 9.83958 241.357 10.0763 241.086 10.2284C240.91 10.3276 240.72 10.3646 240.517 10.3394C240.232 10.2826 239.889 10.2738 239.488 10.313C239.081 10.3406 238.673 10.4071 238.265 10.5126C237.849 10.6064 237.489 10.7393 237.183 10.9112C236.676 11.1955 236.285 11.5007 236.007 11.8267C235.742 12.1462 235.586 12.4658 235.54 12.7856C235.495 13.1054 235.558 13.4105 235.73 13.7007C235.937 14.0491 236.209 14.2832 236.547 14.403C236.89 14.5046 237.297 14.516 237.769 14.4371C238.233 14.3467 238.767 14.2016 239.37 14.002C240.153 13.733 240.86 13.5369 241.494 13.4135C242.138 13.2835 242.72 13.2587 243.239 13.339C243.751 13.4078 244.219 13.6015 244.644 13.9204C245.061 14.2276 245.446 14.6773 245.797 15.2695C246.245 16.0242 246.42 16.7935 246.32 17.5772C246.22 18.361 245.909 19.093 245.386 19.7734C244.876 20.4472 244.22 21.0089 243.42 21.4585ZM245.249 21.6849C245.429 21.9868 245.471 22.296 245.376 22.6124C245.3 22.9338 245.109 23.1804 244.803 23.3523C244.508 23.5176 244.199 23.552 243.875 23.4554C243.558 23.3704 243.309 23.1769 243.13 22.875L234.818 8.87165C234.639 8.56976 234.591 8.26391 234.674 7.95412C234.762 7.6261 234.959 7.37614 235.265 7.20424C235.571 7.03234 235.88 6.99799 236.193 7.10121C236.51 7.18621 236.758 7.37966 236.937 7.68155L245.249 21.6849Z" fill="#138900"/>
<ellipse cx="14.9635" cy="14.5791" rx="14.9635" ry="14.5791" transform="matrix(0.985661 -0.168738 0.178051 0.984021 219.585 98.0771)" fill="#35B021"/>
<path d="M237.807 117.325C236.876 117.485 236.017 117.515 235.23 117.417C234.442 117.306 233.655 117.016 232.871 116.547C232.671 116.431 232.508 116.287 232.381 116.117C232.254 115.947 232.174 115.769 232.141 115.583C232.085 115.278 232.144 114.994 232.316 114.731C232.499 114.453 232.757 114.286 233.089 114.229C233.342 114.186 233.583 114.227 233.811 114.352C234.392 114.677 234.947 114.904 235.478 115.032C236.022 115.158 236.66 115.159 237.392 115.033C237.885 114.949 238.324 114.799 238.71 114.582C239.094 114.352 239.39 114.089 239.597 113.793C239.802 113.484 239.874 113.163 239.814 112.831C239.742 112.433 239.561 112.114 239.27 111.876C238.98 111.638 238.572 111.468 238.046 111.367C237.518 111.252 236.865 111.206 236.087 111.229C235.349 111.246 234.688 111.195 234.104 111.076C233.517 110.943 233.007 110.743 232.575 110.475C232.153 110.191 231.808 109.839 231.54 109.419C231.269 108.986 231.082 108.483 230.979 107.912C230.823 107.048 230.909 106.273 231.237 105.587C231.579 104.898 232.101 104.33 232.802 103.881C233.503 103.432 234.312 103.129 235.231 102.972C236.096 102.824 236.918 102.82 237.698 102.96C238.489 103.085 239.154 103.307 239.692 103.626C240.133 103.866 240.39 104.185 240.462 104.583C240.515 104.876 240.45 105.161 240.267 105.439C240.084 105.716 239.839 105.882 239.533 105.934C239.333 105.968 239.143 105.939 238.962 105.847C238.715 105.697 238.398 105.574 238.009 105.476C237.619 105.364 237.214 105.29 236.796 105.252C236.375 105.201 235.991 105.205 235.645 105.264C235.073 105.362 234.6 105.518 234.228 105.733C233.868 105.945 233.611 106.194 233.457 106.481C233.303 106.768 233.257 107.077 233.317 107.409C233.389 107.808 233.562 108.121 233.836 108.348C234.122 108.559 234.498 108.707 234.966 108.791C235.432 108.862 235.982 108.905 236.616 108.92C237.441 108.929 238.171 108.982 238.806 109.079C239.454 109.174 240.006 109.346 240.463 109.597C240.918 109.834 241.288 110.175 241.575 110.619C241.858 111.05 242.062 111.604 242.184 112.282C242.34 113.145 242.236 113.93 241.869 114.637C241.503 115.343 240.958 115.93 240.232 116.396C239.521 116.861 238.712 117.17 237.807 117.325ZM239.439 118.156C239.502 118.501 239.434 118.807 239.235 119.074C239.052 119.352 238.788 119.521 238.442 119.58C238.109 119.637 237.808 119.565 237.538 119.365C237.271 119.177 237.106 118.911 237.044 118.566L234.144 102.541C234.082 102.196 234.143 101.891 234.329 101.626C234.525 101.346 234.796 101.176 235.142 101.117C235.488 101.058 235.789 101.13 236.045 101.332C236.313 101.52 236.477 101.786 236.54 102.131L239.439 118.156Z" fill="#138900"/>
<ellipse cx="14.8745" cy="14.6699" rx="14.8745" ry="14.6699" transform="matrix(0.871918 0.489652 -0.51042 0.859925 38.6715 90.5361)" fill="#35B021"/>
<path d="M40.0147 116.583C39.1905 116.12 38.5074 115.605 37.9653 115.038C37.43 114.458 37.0138 113.745 36.7166 112.897C36.6394 112.683 36.6078 112.472 36.6218 112.263C36.6359 112.054 36.6912 111.868 36.7877 111.706C36.9462 111.439 37.1782 111.259 37.4838 111.168C37.808 111.071 38.1173 111.105 38.4116 111.271C38.6353 111.396 38.7941 111.578 38.888 111.817C39.1217 112.428 39.4012 112.949 39.7266 113.379C40.0637 113.816 40.556 114.217 41.2036 114.58C41.6392 114.825 42.0774 114.986 42.5182 115.063C42.9658 115.129 43.367 115.114 43.7216 115.019C44.0832 114.912 44.3501 114.714 44.5224 114.424C44.7292 114.075 44.799 113.72 44.7318 113.357C44.6646 112.994 44.4614 112.609 44.1223 112.202C43.7901 111.783 43.316 111.339 42.7 110.869C42.1194 110.419 41.6429 109.966 41.2704 109.509C40.9049 109.04 40.6435 108.568 40.4861 108.093C40.3474 107.613 40.3128 107.129 40.3823 106.641C40.4587 106.142 40.6451 105.643 40.9415 105.144C41.3895 104.389 41.9662 103.854 42.6718 103.538C43.3891 103.229 44.166 103.123 45.0025 103.221C45.839 103.319 46.6634 103.597 47.4758 104.053C48.2411 104.483 48.8786 104.995 49.3882 105.591C49.9166 106.182 50.2834 106.767 50.4887 107.347C50.6716 107.806 50.6597 108.21 50.453 108.558C50.3013 108.813 50.0634 108.989 49.7392 109.086C49.415 109.183 49.1175 109.155 48.8467 109.003C48.6701 108.904 48.5422 108.762 48.4629 108.578C48.3711 108.31 48.2075 108.017 47.9724 107.699C47.7441 107.37 47.4809 107.059 47.1828 106.768C46.8917 106.465 46.593 106.228 46.2869 106.056C45.7807 105.772 45.313 105.594 44.884 105.523C44.4668 105.459 44.1044 105.488 43.7968 105.61C43.4893 105.731 43.2494 105.937 43.077 106.227C42.8703 106.576 42.7981 106.922 42.8604 107.267C42.9413 107.606 43.1347 107.955 43.4405 108.312C43.7532 108.658 44.1494 109.036 44.6289 109.444C45.2595 109.969 45.788 110.467 46.2144 110.938C46.6526 111.417 46.9656 111.894 47.1534 112.371C47.3481 112.837 47.4097 113.328 47.3382 113.845C47.2735 114.351 47.0655 114.9 46.714 115.492C46.266 116.247 45.6681 116.778 44.9203 117.086C44.1726 117.393 43.3652 117.497 42.4983 117.397C41.6431 117.304 40.8153 117.033 40.0147 116.583ZM40.7279 118.238C40.5487 118.54 40.2946 118.73 39.9655 118.808C39.6413 118.905 39.3261 118.867 39.02 118.695C38.7257 118.53 38.5405 118.287 38.4644 117.965C38.3814 117.656 38.4295 117.35 38.6087 117.048L46.9206 103.044C47.0998 102.743 47.3481 102.549 47.6654 102.464C48.0014 102.374 48.3224 102.415 48.6285 102.587C48.9346 102.759 49.1198 103.002 49.1841 103.317C49.2671 103.627 49.219 103.933 49.0398 104.235L40.7279 118.238Z" fill="#138900"/>
</g>
<defs>
<linearGradient id="paint0_linear_3420_1963" x1="163" y1="10" x2="163" y2="118" gradientUnits="userSpaceOnUse">
<stop stop-color="#70BDF0"/>
<stop offset="1" stop-color="#90C9EF"/>
</linearGradient>
</defs>
</svg>
