<svg width="325" height="136" viewBox="0 0 325 136" fill="none" xmlns="http://www.w3.org/2000/svg">
<path d="M33.803 51.5309C33.803 60.606 26.2396 67.9629 16.9097 67.9629C7.57969 67.9629 0.0162659 60.606 0.0162659 51.5309C0.0162659 46.7462 2.11873 42.4391 5.47406 39.4361C8.48273 36.7433 12.4988 35.099 16.9097 35.099C26.2396 35.099 33.803 42.4558 33.803 51.5309Z" fill="#35B021"/>
<path d="M82.5585 51.5309C82.5585 60.606 74.9951 67.9629 65.6652 67.9629C56.3352 67.9629 48.7718 60.606 48.7718 51.5309C48.7718 50.3717 48.8952 49.2405 49.1299 48.1491C50.7329 40.6964 57.527 35.099 65.6652 35.099C74.9951 35.099 82.5585 42.4558 82.5585 51.5309Z" fill="#35B021"/>
<path d="M63.5868 31.8868C63.5868 40.1571 57.3054 47.0004 49.1299 48.1491C48.3343 48.2609 47.5208 48.3187 46.6934 48.3187C38.4936 48.3187 31.6583 42.6362 30.1226 35.099C29.911 34.0601 29.8 32.9861 29.8 31.8868C29.8 30.4431 29.9914 29.0428 30.3509 27.7088C32.2512 20.6571 38.8477 15.4548 46.6934 15.4548C56.0233 15.4548 63.5868 22.8117 63.5868 31.8868Z" fill="#35B021"/>
<path d="M33.803 51.5309C33.803 60.606 26.2396 67.9629 16.9097 67.9629H65.6652C56.3352 67.9629 48.7718 60.606 48.7718 51.5309C48.7718 50.3717 48.8952 49.2405 49.1299 48.1491C48.3343 48.2609 47.5208 48.3187 46.6934 48.3187C38.4936 48.3187 31.6583 42.6362 30.1226 35.099H19.103H16.9097C26.2396 35.099 33.803 42.4558 33.803 51.5309Z" fill="#35B021"/>
<path d="M30.1226 35.099C29.911 34.0601 29.8 32.9861 29.8 31.8868C29.8 30.4431 29.9914 29.0428 30.3509 27.7088C28.9392 30.1722 24.7133 35.099 19.103 35.099H30.1226Z" fill="#35B021"/>
<path d="M115.267 38.5689C115.267 44.5795 110.258 49.452 104.079 49.452C97.8994 49.452 92.89 44.5795 92.89 38.5689C92.89 35.3999 94.2825 32.5473 96.5048 30.5583C98.4975 28.7749 101.157 27.6858 104.079 27.6858C110.258 27.6858 115.267 32.5584 115.267 38.5689Z" fill="#35B021"/>
<path d="M147.559 38.5689C147.559 44.5795 142.549 49.452 136.37 49.452C130.191 49.452 125.181 44.5795 125.181 38.5689C125.181 37.8011 125.263 37.0519 125.419 36.3291C126.48 31.3931 130.98 27.6858 136.37 27.6858C142.549 27.6858 147.559 32.5584 147.559 38.5689Z" fill="#35B021"/>
<path d="M134.994 25.5584C134.994 31.0359 130.833 35.5683 125.419 36.3291C124.892 36.4031 124.353 36.4414 123.805 36.4414C118.374 36.4414 113.847 32.6779 112.83 27.6858C112.69 26.9978 112.616 26.2864 112.616 25.5584C112.616 24.6022 112.743 23.6748 112.981 22.7912C114.24 18.1208 118.609 14.6753 123.805 14.6753C129.984 14.6753 134.994 19.5478 134.994 25.5584Z" fill="#35B021"/>
<path d="M115.267 38.5689C115.267 44.5795 110.258 49.452 104.079 49.452H136.37C130.191 49.452 125.181 44.5795 125.181 38.5689C125.181 37.8011 125.263 37.0519 125.419 36.3291C124.892 36.4031 124.353 36.4414 123.805 36.4414C118.374 36.4414 113.847 32.6779 112.83 27.6858H105.531H104.079C110.258 27.6858 115.267 32.5584 115.267 38.5689Z" fill="#35B021"/>
<path d="M112.83 27.6858C112.69 26.9978 112.616 26.2864 112.616 25.5584C112.616 24.6022 112.743 23.6748 112.981 22.7912C112.046 24.4228 109.247 27.6858 105.531 27.6858H112.83Z" fill="#35B021"/>
<path d="M292.31 52.8936C292.31 58.9042 287.301 63.7767 281.122 63.7767C274.942 63.7767 269.933 58.9042 269.933 52.8936C269.933 49.7246 271.325 46.872 273.548 44.8831C275.54 43.0996 278.2 42.0105 281.122 42.0105C287.301 42.0105 292.31 46.8831 292.31 52.8936Z" fill="#35B021"/>
<path d="M324.602 52.8936C324.602 58.9042 319.592 63.7767 313.413 63.7767C307.234 63.7767 302.224 58.9042 302.224 52.8936C302.224 52.1258 302.306 51.3766 302.461 50.6538C303.523 45.7178 308.023 42.0105 313.413 42.0105C319.592 42.0105 324.602 46.8831 324.602 52.8936Z" fill="#35B021"/>
<path d="M312.036 39.8831C312.036 45.3606 307.876 49.893 302.461 50.6538C301.935 50.7278 301.396 50.7662 300.848 50.7662C295.417 50.7662 290.89 47.0026 289.873 42.0105C289.732 41.3225 289.659 40.6111 289.659 39.8831C289.659 38.9269 289.786 37.9995 290.024 37.1159C291.282 32.4455 295.651 29 300.848 29C307.027 29 312.036 33.8725 312.036 39.8831Z" fill="#35B021"/>
<path d="M292.31 52.8936C292.31 58.9042 287.301 63.7767 281.122 63.7767H313.413C307.234 63.7767 302.224 58.9042 302.224 52.8936C302.224 52.1258 302.306 51.3766 302.461 50.6538C301.935 50.7278 301.396 50.7662 300.848 50.7662C295.417 50.7662 290.89 47.0026 289.873 42.0105H282.574H281.122C287.301 42.0105 292.31 46.8831 292.31 52.8936Z" fill="#35B021"/>
<path d="M289.873 42.0105C289.732 41.3225 289.659 40.6111 289.659 39.8831C289.659 38.9269 289.786 37.9995 290.024 37.1159C289.089 38.7475 286.29 42.0105 282.574 42.0105H289.873Z" fill="#35B021"/>
<ellipse cx="14.8745" cy="14.6699" rx="14.8745" ry="14.6699" transform="matrix(0.871918 -0.489652 0.51042 0.859925 62.2398 83.7009)" fill="#35B021"/>
<path d="M86.1025 95.5927C85.2784 96.0555 84.4781 96.3734 83.7016 96.5462C82.9183 96.7075 82.0747 96.7013 81.171 96.5276C80.9422 96.4858 80.7383 96.4068 80.5594 96.2905C80.3805 96.1742 80.2428 96.0348 80.1463 95.8722C79.9878 95.6052 79.9441 95.32 80.0153 95.0169C80.0914 94.6955 80.2766 94.4521 80.571 94.2868C80.7946 94.1612 81.0361 94.1185 81.2955 94.1586C81.9565 94.2673 82.56 94.2923 83.1058 94.2334C83.6635 94.168 84.2661 93.9534 84.9136 93.5898C85.3493 93.3451 85.7116 93.0565 86.0008 92.7238C86.2831 92.3795 86.4706 92.0342 86.5633 91.688C86.6492 91.3301 86.6059 91.0061 86.4336 90.7158C86.2269 90.3674 85.9452 90.1308 85.5885 90.006C85.2319 89.8812 84.7875 89.8598 84.2554 89.9419C83.7164 90.0123 83.0838 90.1896 82.3576 90.4735C81.6667 90.7377 81.0247 90.9124 80.4317 90.9977C79.8319 91.0714 79.281 91.0556 78.779 90.9505C78.2819 90.8271 77.8338 90.6143 77.4346 90.3121C77.0286 89.9982 76.6774 89.5917 76.381 89.0924C75.933 88.3376 75.7448 87.5841 75.8163 86.8318C75.8995 86.0729 76.194 85.3656 76.6997 84.7101C77.2053 84.0546 77.8643 83.4987 78.6767 83.0425C79.442 82.6127 80.2173 82.3321 81.0027 82.2007C81.7929 82.0511 82.4975 82.0347 83.1163 82.1517C83.6163 82.227 83.9696 82.4388 84.1764 82.7872C84.328 83.0426 84.3658 83.331 84.2897 83.6525C84.2136 83.9739 84.0402 84.2106 83.7694 84.3627C83.5928 84.4618 83.4028 84.4988 83.1995 84.4737C82.9146 84.4169 82.5719 84.4081 82.1713 84.4473C81.7639 84.4749 81.3559 84.5414 80.9476 84.6468C80.5324 84.7407 80.1717 84.8736 79.8656 85.0455C79.3593 85.3298 78.9675 85.6349 78.6901 85.961C78.4245 86.2805 78.2689 86.6001 78.2232 86.9199C78.1776 87.2397 78.2409 87.5447 78.4132 87.835C78.62 88.1834 78.8924 88.4175 79.2303 88.5373C79.5732 88.6389 79.9803 88.6503 80.4515 88.5714C80.9158 88.481 81.4498 88.3359 82.0534 88.1363C82.8356 87.8673 83.5433 87.6711 84.1765 87.5478C84.8215 87.4178 85.4032 87.393 85.9218 87.4733C86.4336 87.542 86.9018 87.7358 87.3265 88.0546C87.7443 88.3619 88.129 88.8116 88.4805 89.4038C88.9285 90.1585 89.1025 90.9277 89.0026 91.7115C88.9027 92.4953 88.5916 93.2273 88.0692 93.9077C87.5587 94.5815 86.9031 95.1431 86.1025 95.5927ZM87.9323 95.8192C88.1115 96.1211 88.1537 96.4302 88.059 96.7466C87.9829 97.068 87.7918 97.3147 87.4857 97.4866C87.1913 97.6519 86.8821 97.6862 86.5579 97.5896C86.2406 97.5046 85.9923 97.3112 85.8131 97.0093L77.5012 83.0059C77.322 82.704 77.2739 82.3982 77.3569 82.0884C77.4448 81.7604 77.6417 81.5104 77.9479 81.3385C78.254 81.1666 78.5632 81.1323 78.8757 81.2355C79.193 81.3205 79.4412 81.5139 79.6204 81.8158L87.9323 95.8192Z" fill="#138900"/>
<ellipse cx="14.8745" cy="14.6699" rx="14.8745" ry="14.6699" transform="matrix(0.871918 -0.489652 0.51042 0.859925 219.557 14.5667)" fill="#35B021"/>
<path d="M243.42 26.4585C242.595 26.9213 241.795 27.2391 241.019 27.412C240.235 27.5732 239.392 27.567 238.488 27.3933C238.259 27.3515 238.055 27.2725 237.876 27.1562C237.697 27.0399 237.56 26.9005 237.463 26.7379C237.305 26.4709 237.261 26.1858 237.332 25.8826C237.408 25.5612 237.594 25.3178 237.888 25.1525C238.112 25.0269 238.353 24.9842 238.612 25.0243C239.274 25.1331 239.877 25.158 240.423 25.0991C240.981 25.0337 241.583 24.8191 242.231 24.4555C242.666 24.2109 243.029 23.9222 243.318 23.5895C243.6 23.2452 243.788 22.8999 243.88 22.5537C243.966 22.1958 243.923 21.8718 243.751 21.5815C243.544 21.2332 243.262 20.9966 242.906 20.8717C242.549 20.7469 242.105 20.7255 241.572 20.8076C241.033 20.8781 240.401 21.0553 239.675 21.3393C238.984 21.6034 238.342 21.7781 237.749 21.8634C237.149 21.9371 236.598 21.9214 236.096 21.8162C235.599 21.6928 235.151 21.48 234.752 21.1778C234.346 20.864 233.994 20.4574 233.698 19.9581C233.25 19.2034 233.062 18.4498 233.133 17.6975C233.217 16.9386 233.511 16.2314 234.017 15.5758C234.522 14.9203 235.181 14.3644 235.994 13.9082C236.759 13.4784 237.534 13.1979 238.32 13.0664C239.11 12.9168 239.814 12.9005 240.433 13.0174C240.933 13.0927 241.287 13.3046 241.493 13.6529C241.645 13.9083 241.683 14.1968 241.607 14.5182C241.531 14.8396 241.357 15.0763 241.086 15.2284C240.91 15.3276 240.72 15.3646 240.517 15.3394C240.232 15.2826 239.889 15.2738 239.488 15.313C239.081 15.3406 238.673 15.4071 238.265 15.5126C237.849 15.6064 237.489 15.7393 237.183 15.9112C236.676 16.1955 236.285 16.5007 236.007 16.8267C235.742 17.1462 235.586 17.4658 235.54 17.7856C235.495 18.1054 235.558 18.4105 235.73 18.7007C235.937 19.0491 236.209 19.2832 236.547 19.403C236.89 19.5046 237.297 19.516 237.769 19.4371C238.233 19.3467 238.767 19.2016 239.37 19.002C240.153 18.733 240.86 18.5369 241.494 18.4135C242.138 18.2835 242.72 18.2587 243.239 18.339C243.751 18.4078 244.219 18.6015 244.644 18.9204C245.061 19.2276 245.446 19.6773 245.797 20.2695C246.245 21.0242 246.42 21.7935 246.32 22.5772C246.22 23.361 245.909 24.093 245.386 24.7734C244.876 25.4472 244.22 26.0089 243.42 26.4585ZM245.249 26.6849C245.429 26.9868 245.471 27.296 245.376 27.6124C245.3 27.9338 245.109 28.1804 244.803 28.3523C244.508 28.5176 244.199 28.552 243.875 28.4554C243.558 28.3704 243.309 28.1769 243.13 27.875L234.818 13.8717C234.639 13.5698 234.591 13.2639 234.674 12.9541C234.762 12.6261 234.959 12.3761 235.265 12.2042C235.571 12.0323 235.88 11.998 236.193 12.1012C236.51 12.1862 236.758 12.3797 236.937 12.6816L245.249 26.6849Z" fill="#138900"/>
<ellipse cx="14.9635" cy="14.5791" rx="14.9635" ry="14.5791" transform="matrix(0.985661 -0.168738 0.178051 0.984021 219.585 103.077)" fill="#35B021"/>
<path d="M237.807 122.325C236.876 122.485 236.017 122.515 235.23 122.417C234.442 122.306 233.655 122.016 232.871 121.547C232.671 121.431 232.508 121.287 232.381 121.117C232.254 120.947 232.174 120.769 232.141 120.583C232.085 120.278 232.144 119.994 232.316 119.731C232.499 119.453 232.757 119.286 233.089 119.229C233.342 119.186 233.583 119.227 233.811 119.352C234.392 119.677 234.947 119.904 235.478 120.032C236.022 120.158 236.66 120.159 237.392 120.033C237.885 119.949 238.324 119.799 238.71 119.582C239.094 119.352 239.39 119.089 239.597 118.793C239.802 118.484 239.874 118.163 239.814 117.831C239.742 117.433 239.561 117.114 239.27 116.876C238.98 116.638 238.572 116.468 238.046 116.367C237.518 116.252 236.865 116.206 236.087 116.229C235.349 116.246 234.688 116.195 234.104 116.076C233.517 115.943 233.007 115.743 232.575 115.475C232.153 115.191 231.808 114.839 231.54 114.419C231.269 113.986 231.082 113.483 230.979 112.912C230.823 112.048 230.909 111.273 231.237 110.587C231.579 109.898 232.101 109.33 232.802 108.881C233.503 108.432 234.312 108.129 235.231 107.972C236.096 107.824 236.918 107.82 237.698 107.96C238.489 108.085 239.154 108.307 239.692 108.626C240.133 108.866 240.39 109.185 240.462 109.583C240.515 109.876 240.45 110.161 240.267 110.439C240.084 110.716 239.839 110.882 239.533 110.934C239.333 110.968 239.143 110.939 238.962 110.847C238.715 110.697 238.398 110.574 238.009 110.476C237.619 110.364 237.214 110.29 236.796 110.252C236.375 110.201 235.991 110.205 235.645 110.264C235.073 110.362 234.6 110.518 234.228 110.733C233.868 110.945 233.611 111.194 233.457 111.481C233.303 111.768 233.257 112.077 233.317 112.409C233.389 112.808 233.562 113.121 233.836 113.348C234.122 113.559 234.498 113.707 234.966 113.791C235.432 113.862 235.982 113.905 236.616 113.92C237.441 113.929 238.171 113.982 238.806 114.079C239.454 114.174 240.006 114.346 240.463 114.597C240.918 114.834 241.288 115.175 241.575 115.619C241.858 116.05 242.062 116.604 242.184 117.282C242.34 118.145 242.236 118.93 241.869 119.637C241.503 120.343 240.958 120.93 240.232 121.396C239.521 121.861 238.712 122.17 237.807 122.325ZM239.439 123.156C239.502 123.501 239.434 123.807 239.235 124.074C239.052 124.352 238.788 124.521 238.442 124.58C238.109 124.637 237.808 124.565 237.538 124.365C237.271 124.177 237.106 123.911 237.044 123.566L234.144 107.541C234.082 107.196 234.143 106.891 234.329 106.626C234.525 106.346 234.796 106.176 235.142 106.117C235.488 106.058 235.789 106.13 236.045 106.332C236.313 106.52 236.477 106.786 236.54 107.131L239.439 123.156Z" fill="#138900"/>
<ellipse cx="14.8745" cy="14.6699" rx="14.8745" ry="14.6699" transform="matrix(0.871918 0.489652 -0.51042 0.859925 38.6715 95.5361)" fill="#35B021"/>
<path d="M40.0147 121.583C39.1905 121.12 38.5074 120.605 37.9653 120.038C37.43 119.458 37.0138 118.745 36.7166 117.897C36.6394 117.683 36.6078 117.472 36.6218 117.263C36.6359 117.054 36.6912 116.868 36.7877 116.706C36.9462 116.439 37.1782 116.259 37.4838 116.168C37.808 116.071 38.1173 116.105 38.4116 116.271C38.6353 116.396 38.7941 116.578 38.888 116.817C39.1217 117.428 39.4012 117.949 39.7266 118.379C40.0637 118.816 40.556 119.217 41.2036 119.58C41.6392 119.825 42.0774 119.986 42.5182 120.063C42.9658 120.129 43.367 120.114 43.7216 120.019C44.0832 119.912 44.3501 119.714 44.5224 119.424C44.7292 119.075 44.799 118.72 44.7318 118.357C44.6646 117.994 44.4614 117.609 44.1223 117.202C43.7901 116.783 43.316 116.339 42.7 115.869C42.1194 115.419 41.6429 114.966 41.2704 114.509C40.9049 114.04 40.6435 113.568 40.4861 113.093C40.3474 112.613 40.3128 112.129 40.3823 111.641C40.4587 111.142 40.6451 110.643 40.9415 110.144C41.3895 109.389 41.9662 108.854 42.6718 108.538C43.3891 108.229 44.166 108.123 45.0025 108.221C45.839 108.319 46.6634 108.597 47.4758 109.053C48.2411 109.483 48.8786 109.995 49.3882 110.591C49.9166 111.182 50.2834 111.767 50.4887 112.347C50.6716 112.806 50.6597 113.21 50.453 113.558C50.3013 113.813 50.0634 113.989 49.7392 114.086C49.415 114.183 49.1175 114.155 48.8467 114.003C48.6701 113.904 48.5422 113.762 48.4629 113.578C48.3711 113.31 48.2075 113.017 47.9724 112.699C47.7441 112.37 47.4809 112.059 47.1828 111.768C46.8917 111.465 46.593 111.228 46.2869 111.056C45.7807 110.772 45.313 110.594 44.884 110.523C44.4668 110.459 44.1044 110.488 43.7968 110.61C43.4893 110.731 43.2494 110.937 43.077 111.227C42.8703 111.576 42.7981 111.922 42.8604 112.267C42.9413 112.606 43.1347 112.955 43.4405 113.312C43.7532 113.658 44.1494 114.036 44.6289 114.444C45.2595 114.969 45.788 115.467 46.2144 115.938C46.6526 116.417 46.9656 116.894 47.1534 117.371C47.3481 117.837 47.4097 118.328 47.3382 118.845C47.2735 119.351 47.0655 119.9 46.714 120.492C46.266 121.247 45.6681 121.778 44.9203 122.086C44.1726 122.393 43.3652 122.497 42.4983 122.397C41.6431 122.304 40.8153 122.033 40.0147 121.583ZM40.7279 123.238C40.5487 123.54 40.2946 123.73 39.9655 123.808C39.6413 123.905 39.3261 123.867 39.02 123.695C38.7257 123.53 38.5405 123.287 38.4644 122.965C38.3814 122.656 38.4295 122.35 38.6087 122.048L46.9206 108.044C47.0998 107.743 47.3481 107.549 47.6654 107.464C48.0014 107.374 48.3224 107.415 48.6285 107.587C48.9346 107.759 49.1198 108.002 49.1841 108.317C49.2671 108.627 49.219 108.933 49.0398 109.235L40.7279 123.238Z" fill="#138900"/>
</svg>
