<svg width="340" height="138" viewBox="0 0 340 138" fill="none" xmlns="http://www.w3.org/2000/svg">
<g filter="url(#filter0_ddd_3125_1782)">
<rect x="24" y="10" width="292" height="108" rx="19.0044" fill="url(#paint0_linear_3125_1782)"/>
</g>
<mask id="mask0_3125_1782" style="mask-type:alpha" maskUnits="userSpaceOnUse" x="24" y="10" width="292" height="108">
<rect x="24" y="10" width="292" height="108" rx="19.0044" fill="url(#paint1_linear_3125_1782)"/>
</mask>
<g mask="url(#mask0_3125_1782)">
<path d="M40.803 46.5309C40.803 55.606 33.2396 62.9629 23.9097 62.9629C14.5797 62.9629 7.01627 55.606 7.01627 46.5309C7.01627 41.7462 9.11873 37.4391 12.4741 34.4361C15.4827 31.7433 19.4988 30.099 23.9097 30.099C33.2396 30.099 40.803 37.4558 40.803 46.5309Z" fill="#35B021"/>
<path d="M89.5585 46.5309C89.5585 55.606 81.9951 62.9629 72.6652 62.9629C63.3352 62.9629 55.7718 55.606 55.7718 46.5309C55.7718 45.3717 55.8952 44.2405 56.1299 43.1491C57.7329 35.6964 64.527 30.099 72.6652 30.099C81.9951 30.099 89.5585 37.4558 89.5585 46.5309Z" fill="#35B021"/>
<path d="M70.5868 26.8868C70.5868 35.1571 64.3054 42.0004 56.1299 43.1491C55.3343 43.2609 54.5208 43.3187 53.6934 43.3187C45.4936 43.3187 38.6583 37.6362 37.1226 30.099C36.911 29.0601 36.8 27.9861 36.8 26.8868C36.8 25.4431 36.9914 24.0428 37.3509 22.7088C39.2512 15.6571 45.8477 10.4548 53.6934 10.4548C63.0233 10.4548 70.5868 17.8117 70.5868 26.8868Z" fill="#35B021"/>
<path d="M40.803 46.5309C40.803 55.606 33.2396 62.9629 23.9097 62.9629H72.6652C63.3352 62.9629 55.7718 55.606 55.7718 46.5309C55.7718 45.3717 55.8952 44.2405 56.1299 43.1491C55.3343 43.2609 54.5208 43.3187 53.6934 43.3187C45.4936 43.3187 38.6583 37.6362 37.1226 30.099H26.103H23.9097C33.2396 30.099 40.803 37.4558 40.803 46.5309Z" fill="#35B021"/>
<path d="M37.1226 30.099C36.911 29.0601 36.8 27.9861 36.8 26.8868C36.8 25.4431 36.9914 24.0428 37.3509 22.7088C35.9392 25.1722 31.7133 30.099 26.103 30.099H37.1226Z" fill="#35B021"/>
<path d="M122.267 33.5689C122.267 39.5795 117.258 44.452 111.079 44.452C104.899 44.452 99.89 39.5795 99.89 33.5689C99.89 30.3999 101.282 27.5473 103.505 25.5583C105.497 23.7749 108.157 22.6858 111.079 22.6858C117.258 22.6858 122.267 27.5584 122.267 33.5689Z" fill="#35B021"/>
<path d="M154.559 33.5689C154.559 39.5795 149.549 44.452 143.37 44.452C137.191 44.452 132.181 39.5795 132.181 33.5689C132.181 32.8011 132.263 32.0519 132.419 31.3291C133.48 26.3931 137.98 22.6858 143.37 22.6858C149.549 22.6858 154.559 27.5584 154.559 33.5689Z" fill="#35B021"/>
<path d="M141.994 20.5584C141.994 26.0359 137.833 30.5683 132.419 31.3291C131.892 31.4031 131.353 31.4414 130.805 31.4414C125.374 31.4414 120.847 27.6779 119.83 22.6858C119.69 21.9978 119.616 21.2864 119.616 20.5584C119.616 19.6022 119.743 18.6748 119.981 17.7912C121.24 13.1208 125.609 9.67529 130.805 9.67529C136.984 9.67529 141.994 14.5478 141.994 20.5584Z" fill="#35B021"/>
<path d="M122.267 33.5689C122.267 39.5795 117.258 44.452 111.079 44.452H143.37C137.191 44.452 132.181 39.5795 132.181 33.5689C132.181 32.8011 132.263 32.0519 132.419 31.3291C131.892 31.4031 131.353 31.4414 130.805 31.4414C125.374 31.4414 120.847 27.6779 119.83 22.6858H112.531H111.079C117.258 22.6858 122.267 27.5584 122.267 33.5689Z" fill="#35B021"/>
<path d="M119.83 22.6858C119.69 21.9978 119.616 21.2864 119.616 20.5584C119.616 19.6022 119.743 18.6748 119.981 17.7912C119.046 19.4228 116.247 22.6858 112.531 22.6858H119.83Z" fill="#35B021"/>
<path d="M299.31 47.8936C299.31 53.9042 294.301 58.7767 288.122 58.7767C281.942 58.7767 276.933 53.9042 276.933 47.8936C276.933 44.7246 278.325 41.872 280.548 39.8831C282.54 38.0996 285.2 37.0105 288.122 37.0105C294.301 37.0105 299.31 41.8831 299.31 47.8936Z" fill="#35B021"/>
<path d="M331.602 47.8936C331.602 53.9042 326.592 58.7767 320.413 58.7767C314.234 58.7767 309.224 53.9042 309.224 47.8936C309.224 47.1258 309.306 46.3766 309.461 45.6538C310.523 40.7178 315.023 37.0105 320.413 37.0105C326.592 37.0105 331.602 41.8831 331.602 47.8936Z" fill="#35B021"/>
<path d="M319.036 34.8831C319.036 40.3606 314.876 44.893 309.461 45.6538C308.935 45.7278 308.396 45.7662 307.848 45.7662C302.417 45.7662 297.89 42.0026 296.873 37.0105C296.732 36.3225 296.659 35.6111 296.659 34.8831C296.659 33.9269 296.786 32.9995 297.024 32.1159C298.282 27.4455 302.651 24 307.848 24C314.027 24 319.036 28.8725 319.036 34.8831Z" fill="#35B021"/>
<path d="M299.31 47.8936C299.31 53.9042 294.301 58.7767 288.122 58.7767H320.413C314.234 58.7767 309.224 53.9042 309.224 47.8936C309.224 47.1258 309.306 46.3766 309.461 45.6538C308.935 45.7278 308.396 45.7662 307.848 45.7662C302.417 45.7662 297.89 42.0026 296.873 37.0105H289.574H288.122C294.301 37.0105 299.31 41.8831 299.31 47.8936Z" fill="#35B021"/>
<path d="M296.873 37.0105C296.732 36.3225 296.659 35.6111 296.659 34.8831C296.659 33.9269 296.786 32.9995 297.024 32.1159C296.089 33.7475 293.29 37.0105 289.574 37.0105H296.873Z" fill="#35B021"/>
<ellipse cx="14.8745" cy="14.6699" rx="14.8745" ry="14.6699" transform="matrix(0.871918 -0.489652 0.51042 0.859925 69.2398 78.7009)" fill="#35B021"/>
<path d="M93.1025 90.5927C92.2784 91.0555 91.4781 91.3734 90.7016 91.5462C89.9183 91.7075 89.0747 91.7013 88.171 91.5276C87.9422 91.4858 87.7383 91.4068 87.5594 91.2905C87.3805 91.1742 87.2428 91.0348 87.1463 90.8722C86.9878 90.6052 86.9441 90.32 87.0153 90.0169C87.0914 89.6955 87.2766 89.4521 87.571 89.2868C87.7946 89.1612 88.0361 89.1185 88.2955 89.1586C88.9565 89.2673 89.56 89.2923 90.1058 89.2334C90.6635 89.168 91.2661 88.9534 91.9136 88.5898C92.3493 88.3451 92.7116 88.0565 93.0008 87.7238C93.2831 87.3795 93.4706 87.0342 93.5633 86.688C93.6492 86.3301 93.6059 86.0061 93.4336 85.7158C93.2269 85.3674 92.9452 85.1308 92.5885 85.006C92.2319 84.8812 91.7875 84.8598 91.2554 84.9419C90.7164 85.0123 90.0838 85.1896 89.3576 85.4735C88.6667 85.7377 88.0247 85.9124 87.4317 85.9977C86.8319 86.0714 86.281 86.0556 85.779 85.9505C85.2819 85.8271 84.8338 85.6143 84.4346 85.3121C84.0286 84.9982 83.6774 84.5917 83.381 84.0924C82.933 83.3376 82.7448 82.5841 82.8163 81.8318C82.8995 81.0729 83.194 80.3656 83.6997 79.7101C84.2053 79.0546 84.8643 78.4987 85.6767 78.0425C86.442 77.6127 87.2173 77.3321 88.0027 77.2007C88.7929 77.0511 89.4975 77.0347 90.1163 77.1517C90.6163 77.227 90.9696 77.4388 91.1764 77.7872C91.328 78.0426 91.3658 78.331 91.2897 78.6525C91.2136 78.9739 91.0402 79.2106 90.7694 79.3627C90.5928 79.4618 90.4028 79.4988 90.1995 79.4737C89.9146 79.4169 89.5719 79.4081 89.1713 79.4473C88.7639 79.4749 88.3559 79.5414 87.9476 79.6468C87.5324 79.7407 87.1717 79.8736 86.8656 80.0455C86.3593 80.3298 85.9675 80.6349 85.6901 80.961C85.4245 81.2805 85.2689 81.6001 85.2232 81.9199C85.1776 82.2397 85.2409 82.5447 85.4132 82.835C85.62 83.1834 85.8924 83.4175 86.2303 83.5373C86.5732 83.6389 86.9803 83.6503 87.4515 83.5714C87.9158 83.481 88.4498 83.3359 89.0534 83.1363C89.8356 82.8673 90.5433 82.6711 91.1765 82.5478C91.8215 82.4178 92.4032 82.393 92.9218 82.4733C93.4336 82.542 93.9018 82.7358 94.3265 83.0546C94.7443 83.3619 95.129 83.8116 95.4805 84.4038C95.9285 85.1585 96.1025 85.9277 96.0026 86.7115C95.9027 87.4953 95.5916 88.2273 95.0692 88.9077C94.5587 89.5815 93.9031 90.1431 93.1025 90.5927ZM94.9323 90.8192C95.1115 91.1211 95.1537 91.4302 95.059 91.7466C94.9829 92.068 94.7918 92.3147 94.4857 92.4866C94.1913 92.6519 93.8821 92.6862 93.5579 92.5896C93.2406 92.5046 92.9923 92.3112 92.8131 92.0093L84.5012 78.0059C84.322 77.704 84.2739 77.3982 84.3569 77.0884C84.4448 76.7604 84.6417 76.5104 84.9479 76.3385C85.254 76.1666 85.5632 76.1323 85.8757 76.2355C86.193 76.3205 86.4412 76.5139 86.6204 76.8158L94.9323 90.8192Z" fill="#138900"/>
<ellipse cx="14.8745" cy="14.6699" rx="14.8745" ry="14.6699" transform="matrix(0.871918 -0.489652 0.51042 0.859925 226.557 9.56665)" fill="#35B021"/>
<path d="M250.42 21.4585C249.595 21.9213 248.795 22.2391 248.019 22.412C247.235 22.5732 246.392 22.567 245.488 22.3933C245.259 22.3515 245.055 22.2725 244.876 22.1562C244.697 22.0399 244.56 21.9005 244.463 21.7379C244.305 21.4709 244.261 21.1858 244.332 20.8826C244.408 20.5612 244.594 20.3178 244.888 20.1525C245.112 20.0269 245.353 19.9842 245.612 20.0243C246.274 20.1331 246.877 20.158 247.423 20.0991C247.981 20.0337 248.583 19.8191 249.231 19.4555C249.666 19.2109 250.029 18.9222 250.318 18.5895C250.6 18.2452 250.788 17.8999 250.88 17.5537C250.966 17.1958 250.923 16.8718 250.751 16.5815C250.544 16.2332 250.262 15.9966 249.906 15.8717C249.549 15.7469 249.105 15.7255 248.572 15.8076C248.033 15.8781 247.401 16.0553 246.675 16.3393C245.984 16.6034 245.342 16.7781 244.749 16.8634C244.149 16.9371 243.598 16.9214 243.096 16.8162C242.599 16.6928 242.151 16.48 241.752 16.1778C241.346 15.864 240.994 15.4574 240.698 14.9581C240.25 14.2034 240.062 13.4498 240.133 12.6975C240.217 11.9386 240.511 11.2314 241.017 10.5758C241.522 9.92029 242.181 9.36441 242.994 8.90821C243.759 8.47845 244.534 8.19786 245.32 8.06645C246.11 7.91681 246.814 7.90046 247.433 8.01739C247.933 8.09272 248.287 8.30455 248.493 8.65289C248.645 8.90834 248.683 9.19677 248.607 9.51818C248.531 9.83958 248.357 10.0763 248.086 10.2284C247.91 10.3276 247.72 10.3646 247.517 10.3394C247.232 10.2826 246.889 10.2738 246.488 10.313C246.081 10.3406 245.673 10.4071 245.265 10.5126C244.849 10.6064 244.489 10.7393 244.183 10.9112C243.676 11.1955 243.285 11.5007 243.007 11.8267C242.742 12.1462 242.586 12.4658 242.54 12.7856C242.495 13.1054 242.558 13.4105 242.73 13.7007C242.937 14.0491 243.209 14.2832 243.547 14.403C243.89 14.5046 244.297 14.516 244.769 14.4371C245.233 14.3467 245.767 14.2016 246.37 14.002C247.153 13.733 247.86 13.5369 248.494 13.4135C249.138 13.2835 249.72 13.2587 250.239 13.339C250.751 13.4078 251.219 13.6015 251.644 13.9204C252.061 14.2276 252.446 14.6773 252.797 15.2695C253.245 16.0242 253.42 16.7935 253.32 17.5772C253.22 18.361 252.909 19.093 252.386 19.7734C251.876 20.4472 251.22 21.0089 250.42 21.4585ZM252.249 21.6849C252.429 21.9868 252.471 22.296 252.376 22.6124C252.3 22.9338 252.109 23.1804 251.803 23.3523C251.508 23.5176 251.199 23.552 250.875 23.4554C250.558 23.3704 250.309 23.1769 250.13 22.875L241.818 8.87165C241.639 8.56976 241.591 8.26391 241.674 7.95412C241.762 7.6261 241.959 7.37614 242.265 7.20424C242.571 7.03234 242.88 6.99799 243.193 7.10121C243.51 7.18621 243.758 7.37966 243.937 7.68155L252.249 21.6849Z" fill="#138900"/>
<ellipse cx="14.9635" cy="14.5791" rx="14.9635" ry="14.5791" transform="matrix(0.985661 -0.168738 0.178051 0.984021 226.585 98.0771)" fill="#35B021"/>
<path d="M244.807 117.325C243.876 117.485 243.017 117.515 242.23 117.417C241.442 117.306 240.655 117.016 239.871 116.547C239.671 116.431 239.508 116.287 239.381 116.117C239.254 115.947 239.174 115.769 239.141 115.583C239.085 115.278 239.144 114.994 239.316 114.731C239.499 114.453 239.757 114.286 240.089 114.229C240.342 114.186 240.583 114.227 240.811 114.352C241.392 114.677 241.947 114.904 242.478 115.032C243.022 115.158 243.66 115.159 244.392 115.033C244.885 114.949 245.324 114.799 245.71 114.582C246.094 114.352 246.39 114.089 246.597 113.793C246.802 113.484 246.874 113.163 246.814 112.831C246.742 112.433 246.561 112.114 246.27 111.876C245.98 111.638 245.572 111.468 245.046 111.367C244.518 111.252 243.865 111.206 243.087 111.229C242.349 111.246 241.688 111.195 241.104 111.076C240.517 110.943 240.007 110.743 239.575 110.475C239.153 110.191 238.808 109.839 238.54 109.419C238.269 108.986 238.082 108.483 237.979 107.912C237.823 107.048 237.909 106.273 238.237 105.587C238.579 104.898 239.101 104.33 239.802 103.881C240.503 103.432 241.312 103.129 242.231 102.972C243.096 102.824 243.918 102.82 244.698 102.96C245.489 103.085 246.154 103.307 246.692 103.626C247.133 103.866 247.39 104.185 247.462 104.583C247.515 104.876 247.45 105.161 247.267 105.439C247.084 105.716 246.839 105.882 246.533 105.934C246.333 105.968 246.143 105.939 245.962 105.847C245.715 105.697 245.398 105.574 245.009 105.476C244.619 105.364 244.214 105.29 243.796 105.252C243.375 105.201 242.991 105.205 242.645 105.264C242.073 105.362 241.6 105.518 241.228 105.733C240.868 105.945 240.611 106.194 240.457 106.481C240.303 106.768 240.257 107.077 240.317 107.409C240.389 107.808 240.562 108.121 240.836 108.348C241.122 108.559 241.498 108.707 241.966 108.791C242.432 108.862 242.982 108.905 243.616 108.92C244.441 108.929 245.171 108.982 245.806 109.079C246.454 109.174 247.006 109.346 247.463 109.597C247.918 109.834 248.288 110.175 248.575 110.619C248.858 111.05 249.062 111.604 249.184 112.282C249.34 113.145 249.236 113.93 248.869 114.637C248.503 115.343 247.958 115.93 247.232 116.396C246.521 116.861 245.712 117.17 244.807 117.325ZM246.439 118.156C246.502 118.501 246.434 118.807 246.235 119.074C246.052 119.352 245.788 119.521 245.442 119.58C245.109 119.637 244.808 119.565 244.538 119.365C244.271 119.177 244.106 118.911 244.044 118.566L241.144 102.541C241.082 102.196 241.143 101.891 241.329 101.626C241.525 101.346 241.796 101.176 242.142 101.117C242.488 101.058 242.789 101.13 243.045 101.332C243.313 101.52 243.477 101.786 243.54 102.131L246.439 118.156Z" fill="#138900"/>
<ellipse cx="14.8745" cy="14.6699" rx="14.8745" ry="14.6699" transform="matrix(0.871918 0.489652 -0.51042 0.859925 45.6715 90.5361)" fill="#35B021"/>
<path d="M47.0147 116.583C46.1905 116.12 45.5074 115.605 44.9653 115.038C44.43 114.458 44.0138 113.745 43.7166 112.897C43.6394 112.683 43.6078 112.472 43.6218 112.263C43.6359 112.054 43.6912 111.868 43.7877 111.706C43.9462 111.439 44.1782 111.259 44.4838 111.168C44.808 111.071 45.1173 111.105 45.4116 111.271C45.6353 111.396 45.7941 111.578 45.888 111.817C46.1217 112.428 46.4012 112.949 46.7266 113.379C47.0637 113.816 47.556 114.217 48.2036 114.58C48.6392 114.825 49.0774 114.986 49.5182 115.063C49.9658 115.129 50.367 115.114 50.7216 115.019C51.0832 114.912 51.3501 114.714 51.5224 114.424C51.7292 114.075 51.799 113.72 51.7318 113.357C51.6646 112.994 51.4614 112.609 51.1223 112.202C50.7901 111.783 50.316 111.339 49.7 110.869C49.1194 110.419 48.6429 109.966 48.2704 109.509C47.9049 109.04 47.6435 108.568 47.4861 108.093C47.3474 107.613 47.3128 107.129 47.3823 106.641C47.4587 106.142 47.6451 105.643 47.9415 105.144C48.3895 104.389 48.9662 103.854 49.6718 103.538C50.3891 103.229 51.166 103.123 52.0025 103.221C52.839 103.319 53.6634 103.597 54.4758 104.053C55.2411 104.483 55.8786 104.995 56.3882 105.591C56.9166 106.182 57.2834 106.767 57.4887 107.347C57.6716 107.806 57.6597 108.21 57.453 108.558C57.3013 108.813 57.0634 108.989 56.7392 109.086C56.415 109.183 56.1175 109.155 55.8467 109.003C55.6701 108.904 55.5422 108.762 55.4629 108.578C55.3711 108.31 55.2075 108.017 54.9724 107.699C54.7441 107.37 54.4809 107.059 54.1828 106.768C53.8917 106.465 53.593 106.228 53.2869 106.056C52.7807 105.772 52.313 105.594 51.884 105.523C51.4668 105.459 51.1044 105.488 50.7968 105.61C50.4893 105.731 50.2494 105.937 50.077 106.227C49.8703 106.576 49.7981 106.922 49.8604 107.267C49.9413 107.606 50.1347 107.955 50.4405 108.312C50.7532 108.658 51.1494 109.036 51.6289 109.444C52.2595 109.969 52.788 110.467 53.2144 110.938C53.6526 111.417 53.9656 111.894 54.1534 112.371C54.3481 112.837 54.4097 113.328 54.3382 113.845C54.2735 114.351 54.0655 114.9 53.714 115.492C53.266 116.247 52.6681 116.778 51.9203 117.086C51.1726 117.393 50.3652 117.497 49.4983 117.397C48.6431 117.304 47.8153 117.033 47.0147 116.583ZM47.7279 118.238C47.5487 118.54 47.2946 118.73 46.9655 118.808C46.6413 118.905 46.3261 118.867 46.02 118.695C45.7257 118.53 45.5405 118.287 45.4644 117.965C45.3814 117.656 45.4295 117.35 45.6087 117.048L53.9206 103.044C54.0998 102.743 54.3481 102.549 54.6654 102.464C55.0014 102.374 55.3224 102.415 55.6285 102.587C55.9346 102.759 56.1198 103.002 56.1841 103.317C56.2671 103.627 56.219 103.933 56.0398 104.235L47.7279 118.238Z" fill="#138900"/>
</g>
<defs>
<filter id="filter0_ddd_3125_1782" x="0" y="2" width="340" height="156" filterUnits="userSpaceOnUse" color-interpolation-filters="sRGB">
<feFlood flood-opacity="0" result="BackgroundImageFix"/>
<feColorMatrix in="SourceAlpha" type="matrix" values="0 0 0 0 0 0 0 0 0 0 0 0 0 0 0 0 0 0 127 0" result="hardAlpha"/>
<feOffset/>
<feGaussianBlur stdDeviation="0.5"/>
<feColorMatrix type="matrix" values="0 0 0 0 0 0 0 0 0 0 0 0 0 0 0 0 0 0 0.04 0"/>
<feBlend mode="normal" in2="BackgroundImageFix" result="effect1_dropShadow_3125_1782"/>
<feColorMatrix in="SourceAlpha" type="matrix" values="0 0 0 0 0 0 0 0 0 0 0 0 0 0 0 0 0 0 127 0" result="hardAlpha"/>
<feOffset dy="2"/>
<feGaussianBlur stdDeviation="3"/>
<feColorMatrix type="matrix" values="0 0 0 0 0 0 0 0 0 0 0 0 0 0 0 0 0 0 0.04 0"/>
<feBlend mode="normal" in2="effect1_dropShadow_3125_1782" result="effect2_dropShadow_3125_1782"/>
<feColorMatrix in="SourceAlpha" type="matrix" values="0 0 0 0 0 0 0 0 0 0 0 0 0 0 0 0 0 0 127 0" result="hardAlpha"/>
<feOffset dy="16"/>
<feGaussianBlur stdDeviation="12"/>
<feColorMatrix type="matrix" values="0 0 0 0 0 0 0 0 0 0 0 0 0 0 0 0 0 0 0.06 0"/>
<feBlend mode="normal" in2="effect2_dropShadow_3125_1782" result="effect3_dropShadow_3125_1782"/>
<feBlend mode="normal" in="SourceGraphic" in2="effect3_dropShadow_3125_1782" result="shape"/>
</filter>
<linearGradient id="paint0_linear_3125_1782" x1="170" y1="10" x2="170" y2="118" gradientUnits="userSpaceOnUse">
<stop stop-color="#43DB2A"/>
<stop offset="1" stop-color="#51AC42"/>
</linearGradient>
<linearGradient id="paint1_linear_3125_1782" x1="170" y1="10" x2="170" y2="118" gradientUnits="userSpaceOnUse">
<stop stop-color="#70BDF0"/>
<stop offset="1" stop-color="#90C9EF"/>
</linearGradient>
</defs>
</svg>
